<svg xmlns="http://www.w3.org/2000/svg" xmlns:xlink="http://www.w3.org/1999/xlink" width="500" zoomAndPan="magnify" viewBox="0 0 375 149.999998" height="200" preserveAspectRatio="xMidYMid meet" version="1.0"><defs><g/><clipPath id="e81aa03458"><path d="M 15 45 L 106.5 45 L 106.5 122.921875 L 15 122.921875 Z M 15 45 " clip-rule="nonzero"/></clipPath><clipPath id="ea22c7bdeb"><path d="M 48 26.921875 L 63 26.921875 L 63 41 L 48 41 Z M 48 26.921875 " clip-rule="nonzero"/></clipPath></defs><g clip-path="url(#e81aa03458)"><path fill="#ffde59" d="M 99.300781 65.058594 C 97.398438 64.0625 96.835938 62.871094 96.929688 62.152344 C 96.96875 61.824219 97.144531 61.589844 97.378906 61.535156 C 97.414062 61.527344 97.453125 61.523438 97.496094 61.523438 C 97.855469 61.523438 98.433594 61.847656 99.039062 62.785156 C 99.667969 63.75 100.007812 64.613281 100.0625 65.359375 C 99.824219 65.296875 99.570312 65.199219 99.300781 65.058594 Z M 96.855469 66.417969 C 97.246094 66.710938 97.679688 66.984375 98.15625 67.234375 C 98.4375 67.378906 98.722656 67.503906 99.007812 67.601562 C 98.691406 67.859375 98.332031 68.074219 97.972656 68.253906 C 97.621094 67.628906 97.25 67.015625 96.855469 66.417969 Z M 85.476562 107.707031 L 84.699219 117.371094 C 84.699219 117.371094 83.707031 118.144531 81.917969 118.144531 C 81 118.144531 79.875 117.941406 78.566406 117.328125 L 77 111.769531 C 74.5 112.492188 71.867188 112.898438 69.140625 112.898438 C 69.140625 112.898438 65.132812 112.960938 61.367188 112.960938 C 57.597656 112.960938 54.191406 112.898438 54.191406 112.898438 C 51.617188 112.898438 49.132812 112.527344 46.761719 111.882812 L 45.234375 117.328125 C 44 117.859375 42.933594 118.039062 42.054688 118.039062 C 40.144531 118.039062 39.105469 117.183594 39.105469 117.183594 L 38.582031 108.214844 C 33.027344 104.550781 28.84375 98.996094 26.941406 92.460938 L 21.246094 90.703125 C 21.246094 90.703125 19.773438 86.273438 20.207031 81.089844 L 26.648438 77.703125 C 28.351562 70.808594 32.550781 64.894531 38.269531 61.015625 L 35.371094 50.695312 C 35.371094 50.695312 36.707031 50.175781 38.570312 50.175781 C 41.320312 50.175781 45.21875 51.308594 47.652344 56.921875 C 48.90625 56.628906 50.191406 56.417969 51.5 56.285156 C 51.6875 58.550781 52.738281 60.570312 54.320312 62.027344 C 52.890625 62.117188 52.023438 62.207031 51.914062 62.21875 C 51.046875 62.316406 50.421875 63.089844 50.511719 63.953125 C 50.605469 64.820312 51.398438 65.4375 52.25 65.351562 C 52.335938 65.339844 60.996094 64.441406 70.804688 65.5625 C 70.863281 65.570312 70.925781 65.574219 70.988281 65.574219 C 71.773438 65.574219 72.457031 64.980469 72.546875 64.179688 C 72.648438 63.316406 72.027344 62.535156 71.164062 62.433594 C 69.492188 62.242188 67.859375 62.109375 66.296875 62.015625 C 67.90625 60.527344 68.960938 58.457031 69.113281 56.132812 C 69.125 56.136719 69.140625 56.136719 69.140625 56.136719 C 84.820312 56.136719 97.539062 68.847656 97.539062 84.515625 C 97.539062 94.105469 92.761719 102.570312 85.476562 107.707031 Z M 63.863281 51.113281 C 64.1875 51.371094 64.476562 51.664062 64.734375 51.984375 C 64.75 52 64.761719 52.019531 64.773438 52.035156 C 64.882812 52.171875 64.984375 52.316406 65.078125 52.460938 C 65.109375 52.503906 65.132812 52.550781 65.160156 52.59375 C 65.234375 52.71875 65.308594 52.84375 65.375 52.972656 C 65.402344 53.03125 65.429688 53.089844 65.457031 53.148438 C 65.515625 53.269531 65.566406 53.394531 65.613281 53.519531 C 65.640625 53.585938 65.664062 53.652344 65.6875 53.71875 C 65.730469 53.84375 65.765625 53.96875 65.800781 54.097656 C 65.820312 54.167969 65.839844 54.238281 65.855469 54.308594 C 65.886719 54.445312 65.90625 54.585938 65.925781 54.722656 C 65.9375 54.789062 65.949219 54.851562 65.957031 54.917969 C 65.980469 55.121094 65.992188 55.328125 65.992188 55.542969 C 65.992188 55.660156 65.984375 55.777344 65.976562 55.894531 C 65.789062 58.867188 63.320312 61.226562 60.304688 61.226562 C 57.351562 61.226562 54.921875 58.972656 54.640625 56.097656 C 54.621094 55.914062 54.613281 55.726562 54.613281 55.542969 C 54.613281 55.335938 54.625 55.128906 54.644531 54.929688 C 54.652344 54.867188 54.664062 54.808594 54.675781 54.75 C 54.695312 54.609375 54.714844 54.46875 54.746094 54.332031 C 54.757812 54.269531 54.777344 54.207031 54.792969 54.140625 C 54.828125 54.011719 54.863281 53.882812 54.902344 53.753906 C 54.925781 53.695312 54.945312 53.636719 54.96875 53.578125 C 55.015625 53.449219 55.066406 53.320312 55.125 53.199219 C 55.148438 53.144531 55.171875 53.097656 55.199219 53.046875 C 55.261719 52.914062 55.328125 52.789062 55.402344 52.664062 C 55.425781 52.621094 55.453125 52.582031 55.476562 52.542969 C 55.558594 52.410156 55.648438 52.28125 55.742188 52.15625 C 55.761719 52.128906 55.78125 52.101562 55.804688 52.074219 C 55.910156 51.9375 56.019531 51.804688 56.136719 51.679688 C 56.152344 51.664062 56.164062 51.648438 56.179688 51.632812 C 56.3125 51.492188 56.453125 51.359375 56.597656 51.234375 C 57.59375 50.378906 58.886719 49.855469 60.304688 49.855469 C 61.652344 49.855469 62.890625 50.328125 63.863281 51.113281 Z M 102.003906 67.773438 C 103.007812 67.535156 103.941406 66.992188 104.691406 66.15625 C 106.261719 64.410156 106.503906 62.015625 105.292969 60.195312 C 104.914062 59.632812 104.152344 59.484375 103.589844 59.855469 C 103.023438 60.230469 102.871094 60.996094 103.246094 61.558594 C 103.917969 62.5625 103.535156 63.765625 102.863281 64.511719 C 102.785156 64.597656 102.660156 64.726562 102.488281 64.863281 C 102.34375 63.789062 101.882812 62.652344 101.105469 61.449219 C 99.949219 59.664062 98.347656 58.804688 96.839844 59.140625 C 95.589844 59.421875 94.671875 60.476562 94.492188 61.832031 C 94.421875 62.347656 94.460938 62.863281 94.597656 63.367188 C 88.578125 56.144531 79.550781 51.511719 69.457031 51.414062 C 69.15625 51.378906 68.6875 51.332031 68.046875 51.285156 C 66.539062 48.558594 63.636719 46.707031 60.304688 46.707031 C 56.898438 46.707031 53.9375 48.644531 52.460938 51.472656 C 51.6875 51.515625 50.910156 51.578125 50.125 51.675781 C 47.332031 47.679688 43.265625 45.449219 38.570312 45.449219 C 35.953125 45.449219 34.015625 46.152344 33.65625 46.292969 C 31.390625 47.175781 30.164062 49.632812 30.820312 51.972656 L 32.851562 59.203125 C 28.085938 63.21875 24.550781 68.5 22.652344 74.464844 L 18.003906 76.90625 C 16.574219 77.660156 15.628906 79.089844 15.496094 80.699219 C 15 86.675781 16.578125 91.644531 16.761719 92.191406 C 17.242188 93.640625 18.394531 94.765625 19.851562 95.214844 L 23.234375 96.261719 C 25.402344 101.976562 29.132812 106.996094 33.992188 110.742188 L 34.386719 117.457031 C 34.460938 118.769531 35.082031 119.988281 36.09375 120.824219 C 36.644531 121.28125 38.707031 122.765625 42.054688 122.765625 C 43.710938 122.765625 45.414062 122.394531 47.105469 121.664062 C 48.414062 121.101562 49.398438 119.972656 49.785156 118.601562 L 50.132812 117.359375 C 51.492188 117.535156 52.84375 117.621094 54.1875 117.621094 C 54.160156 117.621094 57.582031 117.6875 61.367188 117.6875 C 65.171875 117.6875 69.214844 117.621094 69.214844 117.621094 C 69.214844 117.621094 69.21875 117.621094 69.222656 117.621094 C 70.683594 117.621094 72.164062 117.515625 73.652344 117.304688 L 74.019531 118.605469 C 74.390625 119.925781 75.316406 121.019531 76.558594 121.601562 C 78.347656 122.441406 80.148438 122.867188 81.917969 122.867188 C 85.085938 122.867188 87.074219 121.511719 87.605469 121.09375 C 88.652344 120.28125 89.304688 119.066406 89.414062 117.746094 L 90.019531 110.191406 C 97.726562 103.921875 102.265625 94.488281 102.265625 84.515625 C 102.265625 79.480469 101.128906 74.703125 99.109375 70.425781 C 100.1875 69.882812 101.347656 69.042969 102.003906 67.773438 " fill-opacity="1" fill-rule="nonzero"/></g><path fill="#ffde59" d="M 36.222656 69.605469 C 34.796875 69.605469 33.679688 71.023438 33.679688 72.832031 C 33.679688 74.640625 34.796875 76.058594 36.222656 76.058594 C 37.644531 76.058594 38.765625 74.640625 38.765625 72.832031 C 38.765625 71.023438 37.644531 69.605469 36.222656 69.605469 " fill-opacity="1" fill-rule="nonzero"/><path fill="#ffde59" d="M 56.667969 86.105469 C 56.234375 85.6875 55.925781 85.234375 55.757812 84.777344 C 55.570312 84.257812 55.453125 83.738281 55.410156 83.234375 C 55.324219 81.652344 55.824219 80.320312 56.933594 79.164062 C 57.84375 78.214844 59.140625 77.621094 60.792969 77.382812 L 60.792969 88.136719 C 59.933594 87.960938 59.214844 87.730469 58.644531 87.445312 C 57.824219 87.027344 57.160156 86.574219 56.667969 86.105469 Z M 67.96875 100.621094 C 67.632812 101.035156 67.132812 101.417969 66.492188 101.765625 C 66.078125 101.984375 65.558594 102.15625 64.9375 102.273438 L 64.9375 92.484375 C 66.171875 92.871094 67.101562 93.421875 67.714844 94.121094 C 68.523438 95.050781 68.90625 96.472656 68.867188 98.363281 L 68.867188 98.386719 C 68.867188 98.515625 68.835938 98.8125 68.660156 99.382812 C 68.527344 99.800781 68.300781 100.203125 67.96875 100.621094 Z M 71.15625 92.628906 C 70.554688 91.707031 69.671875 90.875 68.539062 90.160156 C 67.59375 89.550781 66.410156 89.085938 64.9375 88.746094 L 64.9375 77.757812 C 65.21875 77.875 65.472656 78.011719 65.710938 78.175781 C 66.316406 78.582031 66.828125 79.042969 67.242188 79.554688 C 67.636719 80.039062 67.9375 80.582031 68.132812 81.164062 C 68.339844 81.804688 68.46875 82.40625 68.511719 83.003906 C 68.660156 84.257812 69.566406 84.71875 70.441406 84.636719 C 70.863281 84.582031 71.871094 84.304688 72.179688 82.632812 C 72.121094 80.117188 71.304688 78.066406 69.765625 76.539062 C 68.46875 75.257812 66.847656 74.417969 64.9375 74.027344 L 64.9375 72.386719 C 64.9375 71.578125 64.554688 71.085938 64.203125 70.789062 C 63.347656 70.117188 62.207031 70.132812 61.417969 70.855469 C 61.132812 71.125 60.792969 71.609375 60.792969 72.386719 L 60.792969 73.796875 C 59.648438 73.914062 58.5625 74.164062 57.554688 74.539062 C 56.238281 75.035156 55.105469 75.722656 54.1875 76.597656 C 53.273438 77.464844 52.578125 78.496094 52.113281 79.664062 C 51.644531 80.851562 51.464844 82.113281 51.589844 83.433594 C 51.855469 85.847656 52.871094 87.824219 54.609375 89.3125 C 56.148438 90.625 58.199219 91.457031 60.792969 91.796875 L 60.792969 102.339844 C 58.941406 102.144531 57.480469 101.644531 56.429688 100.859375 C 55.1875 99.914062 54.433594 98.796875 54.144531 97.539062 C 54.042969 96.8125 53.488281 96.019531 52.25 95.976562 C 51.507812 95.933594 51.039062 96.253906 50.8125 96.523438 C 50.585938 96.792969 50.34375 97.265625 50.5 97.96875 C 50.972656 100.53125 52.300781 102.519531 54.441406 103.878906 C 56.226562 105.007812 58.359375 105.683594 60.792969 105.90625 L 60.792969 107.195312 C 60.792969 107.996094 61.140625 108.480469 61.445312 108.753906 C 61.84375 109.105469 62.320312 109.289062 62.828125 109.289062 C 63.308594 109.289062 63.765625 109.125 64.210938 108.789062 C 64.679688 108.410156 64.9375 107.84375 64.9375 107.195312 L 64.9375 105.863281 C 67.28125 105.535156 69.074219 104.703125 70.28125 103.375 C 71.628906 101.886719 72.371094 100.234375 72.488281 98.5 C 72.582031 97.601562 72.535156 96.652344 72.339844 95.597656 C 72.140625 94.539062 71.746094 93.542969 71.15625 92.628906 " fill-opacity="1" fill-rule="nonzero"/><path fill="#ffde59" d="M 72.0625 37.15625 C 73.144531 37.15625 74.027344 38.035156 74.027344 39.121094 C 74.027344 40.203125 73.144531 41.082031 72.0625 41.082031 C 70.980469 41.082031 70.09375 40.203125 70.09375 39.121094 C 70.09375 38.035156 70.980469 37.15625 72.0625 37.15625 Z M 72.0625 44.234375 C 74.882812 44.234375 77.179688 41.9375 77.179688 39.121094 C 77.179688 36.296875 74.882812 34.003906 72.0625 34.003906 C 69.242188 34.003906 66.945312 36.296875 66.945312 39.121094 C 66.945312 41.9375 69.242188 44.234375 72.0625 44.234375 " fill-opacity="1" fill-rule="nonzero"/><g clip-path="url(#ea22c7bdeb)"><path fill="#ffde59" d="M 55.882812 30.128906 C 57.953125 30.128906 59.632812 31.808594 59.632812 33.871094 C 59.632812 35.9375 57.953125 37.617188 55.882812 37.617188 C 53.820312 37.617188 52.136719 35.9375 52.136719 33.871094 C 52.136719 31.808594 53.820312 30.128906 55.882812 30.128906 Z M 55.882812 40.765625 C 59.6875 40.765625 62.785156 37.671875 62.785156 33.871094 C 62.785156 30.074219 59.6875 26.980469 55.882812 26.980469 C 52.082031 26.980469 48.988281 30.074219 48.988281 33.871094 C 48.988281 37.671875 52.082031 40.765625 55.882812 40.765625 " fill-opacity="1" fill-rule="nonzero"/></g><g fill="#ebe8e8" fill-opacity="1"><g transform="translate(126.747277, 82.18127)"><g><path d="M 10.453125 -24.125 C 11.734375 -24.125 12.984375 -23.9375 14.203125 -23.5625 C 15.429688 -23.1875 16.34375 -22.816406 16.9375 -22.453125 L 17.8125 -21.890625 L 15.625 -17.578125 C 15.445312 -17.691406 15.207031 -17.835938 14.90625 -18.015625 C 14.601562 -18.203125 14.03125 -18.445312 13.1875 -18.75 C 12.34375 -19.0625 11.554688 -19.21875 10.828125 -19.21875 C 9.929688 -19.21875 9.238281 -19.023438 8.75 -18.640625 C 8.257812 -18.253906 8.015625 -17.738281 8.015625 -17.09375 C 8.015625 -16.757812 8.128906 -16.453125 8.359375 -16.171875 C 8.585938 -15.898438 8.976562 -15.601562 9.53125 -15.28125 C 10.09375 -14.96875 10.582031 -14.71875 11 -14.53125 C 11.414062 -14.34375 12.066406 -14.054688 12.953125 -13.671875 C 14.484375 -13.015625 15.789062 -12.125 16.875 -11 C 17.957031 -9.882812 18.5 -8.617188 18.5 -7.203125 C 18.5 -5.847656 18.253906 -4.660156 17.765625 -3.640625 C 17.273438 -2.628906 16.601562 -1.835938 15.75 -1.265625 C 14.894531 -0.691406 13.953125 -0.265625 12.921875 0.015625 C 11.890625 0.296875 10.769531 0.4375 9.5625 0.4375 C 8.53125 0.4375 7.515625 0.328125 6.515625 0.109375 C 5.523438 -0.0976562 4.691406 -0.359375 4.015625 -0.671875 C 3.347656 -0.992188 2.742188 -1.304688 2.203125 -1.609375 C 1.671875 -1.910156 1.28125 -2.171875 1.03125 -2.390625 L 0.65625 -2.703125 L 3.359375 -7.234375 C 3.585938 -7.046875 3.898438 -6.800781 4.296875 -6.5 C 4.703125 -6.207031 5.414062 -5.8125 6.4375 -5.3125 C 7.46875 -4.8125 8.375 -4.5625 9.15625 -4.5625 C 11.4375 -4.5625 12.578125 -5.335938 12.578125 -6.890625 C 12.578125 -7.210938 12.492188 -7.515625 12.328125 -7.796875 C 12.171875 -8.078125 11.882812 -8.351562 11.46875 -8.625 C 11.0625 -8.90625 10.695312 -9.125 10.375 -9.28125 C 10.0625 -9.445312 9.546875 -9.695312 8.828125 -10.03125 C 8.109375 -10.375 7.578125 -10.628906 7.234375 -10.796875 C 5.796875 -11.503906 4.6875 -12.390625 3.90625 -13.453125 C 3.125 -14.515625 2.734375 -15.660156 2.734375 -16.890625 C 2.734375 -19.015625 3.515625 -20.75 5.078125 -22.09375 C 6.648438 -23.445312 8.441406 -24.125 10.453125 -24.125 Z M 10.453125 -24.125 "/></g></g></g><g fill="#ebe8e8" fill-opacity="1"><g transform="translate(151.795616, 82.18127)"><g><path d="M 13.75 -23.6875 L 23.3125 0 L 17.515625 0 L 15.765625 -4.734375 L 6.75 -4.734375 L 5 0 L -0.796875 0 L 8.765625 -23.6875 Z M 13.921875 -9.484375 L 11.28125 -16.375 L 11.234375 -16.375 L 8.59375 -9.484375 Z M 13.921875 -9.484375 "/></g></g></g><g fill="#ebe8e8" fill-opacity="1"><g transform="translate(180.061181, 82.18127)"><g><path d="M 9.125 0 L -0.796875 -23.6875 L 5.28125 -23.6875 L 11.25 -8.125 L 17.234375 -23.6875 L 23.3125 -23.6875 L 13.390625 0 Z M 9.125 0 "/></g></g></g><g fill="#ebe8e8" fill-opacity="1"><g transform="translate(208.326745, 82.18127)"><g><path d="M 15.28125 -23.6875 L 15.28125 -18.953125 L 7.125 -18.953125 L 7.125 -14.25 L 14.9375 -14.25 L 14.9375 -9.5 L 7.125 -9.5 L 7.125 -4.734375 L 15.28125 -4.734375 L 15.28125 0 L 1.71875 0 L 1.71875 -23.6875 Z M 15.28125 -23.6875 "/></g></g></g><g fill="#ebe8e8" fill-opacity="1"><g transform="translate(230.732375, 82.18127)"><g/></g></g><g fill="#ebe8e8" fill-opacity="1"><g transform="translate(244.319377, 82.18127)"><g><path d="M 14.328125 -4.875 C 15.148438 -4.875 15.945312 -5 16.71875 -5.25 C 17.5 -5.5 18.070312 -5.738281 18.4375 -5.96875 L 18.984375 -6.34375 L 21.28125 -1.75 C 21.207031 -1.695312 21.101562 -1.617188 20.96875 -1.515625 C 20.832031 -1.421875 20.519531 -1.242188 20.03125 -0.984375 C 19.539062 -0.734375 19.019531 -0.507812 18.46875 -0.3125 C 17.914062 -0.125 17.1875 0.046875 16.28125 0.203125 C 15.382812 0.359375 14.457031 0.4375 13.5 0.4375 C 11.289062 0.4375 9.203125 -0.101562 7.234375 -1.1875 C 5.265625 -2.269531 3.675781 -3.757812 2.46875 -5.65625 C 1.257812 -7.550781 0.65625 -9.597656 0.65625 -11.796875 C 0.65625 -13.460938 1.007812 -15.0625 1.71875 -16.59375 C 2.425781 -18.125 3.367188 -19.4375 4.546875 -20.53125 C 5.722656 -21.625 7.097656 -22.492188 8.671875 -23.140625 C 10.242188 -23.796875 11.851562 -24.125 13.5 -24.125 C 15.03125 -24.125 16.441406 -23.941406 17.734375 -23.578125 C 19.023438 -23.210938 19.9375 -22.847656 20.46875 -22.484375 L 21.28125 -21.9375 L 18.984375 -17.34375 C 18.847656 -17.457031 18.644531 -17.59375 18.375 -17.75 C 18.113281 -17.914062 17.578125 -18.132812 16.765625 -18.40625 C 15.960938 -18.675781 15.148438 -18.8125 14.328125 -18.8125 C 13.023438 -18.8125 11.859375 -18.597656 10.828125 -18.171875 C 9.796875 -17.753906 8.976562 -17.203125 8.375 -16.515625 C 7.769531 -15.828125 7.304688 -15.082031 6.984375 -14.28125 C 6.671875 -13.488281 6.515625 -12.679688 6.515625 -11.859375 C 6.515625 -10.054688 7.1875 -8.441406 8.53125 -7.015625 C 9.882812 -5.585938 11.816406 -4.875 14.328125 -4.875 Z M 14.328125 -4.875 "/></g></g></g><g fill="#ebe8e8" fill-opacity="1"><g transform="translate(271.694455, 82.18127)"><g><path d="M 13.75 -23.6875 L 23.3125 0 L 17.515625 0 L 15.765625 -4.734375 L 6.75 -4.734375 L 5 0 L -0.796875 0 L 8.765625 -23.6875 Z M 13.921875 -9.484375 L 11.28125 -16.375 L 11.234375 -16.375 L 8.59375 -9.484375 Z M 13.921875 -9.484375 "/></g></g></g><g fill="#ebe8e8" fill-opacity="1"><g transform="translate(299.960015, 82.18127)"><g><path d="M 10.453125 -24.125 C 11.734375 -24.125 12.984375 -23.9375 14.203125 -23.5625 C 15.429688 -23.1875 16.34375 -22.816406 16.9375 -22.453125 L 17.8125 -21.890625 L 15.625 -17.578125 C 15.445312 -17.691406 15.207031 -17.835938 14.90625 -18.015625 C 14.601562 -18.203125 14.03125 -18.445312 13.1875 -18.75 C 12.34375 -19.0625 11.554688 -19.21875 10.828125 -19.21875 C 9.929688 -19.21875 9.238281 -19.023438 8.75 -18.640625 C 8.257812 -18.253906 8.015625 -17.738281 8.015625 -17.09375 C 8.015625 -16.757812 8.128906 -16.453125 8.359375 -16.171875 C 8.585938 -15.898438 8.976562 -15.601562 9.53125 -15.28125 C 10.09375 -14.96875 10.582031 -14.71875 11 -14.53125 C 11.414062 -14.34375 12.066406 -14.054688 12.953125 -13.671875 C 14.484375 -13.015625 15.789062 -12.125 16.875 -11 C 17.957031 -9.882812 18.5 -8.617188 18.5 -7.203125 C 18.5 -5.847656 18.253906 -4.660156 17.765625 -3.640625 C 17.273438 -2.628906 16.601562 -1.835938 15.75 -1.265625 C 14.894531 -0.691406 13.953125 -0.265625 12.921875 0.015625 C 11.890625 0.296875 10.769531 0.4375 9.5625 0.4375 C 8.53125 0.4375 7.515625 0.328125 6.515625 0.109375 C 5.523438 -0.0976562 4.691406 -0.359375 4.015625 -0.671875 C 3.347656 -0.992188 2.742188 -1.304688 2.203125 -1.609375 C 1.671875 -1.910156 1.28125 -2.171875 1.03125 -2.390625 L 0.65625 -2.703125 L 3.359375 -7.234375 C 3.585938 -7.046875 3.898438 -6.800781 4.296875 -6.5 C 4.703125 -6.207031 5.414062 -5.8125 6.4375 -5.3125 C 7.46875 -4.8125 8.375 -4.5625 9.15625 -4.5625 C 11.4375 -4.5625 12.578125 -5.335938 12.578125 -6.890625 C 12.578125 -7.210938 12.492188 -7.515625 12.328125 -7.796875 C 12.171875 -8.078125 11.882812 -8.351562 11.46875 -8.625 C 11.0625 -8.90625 10.695312 -9.125 10.375 -9.28125 C 10.0625 -9.445312 9.546875 -9.695312 8.828125 -10.03125 C 8.109375 -10.375 7.578125 -10.628906 7.234375 -10.796875 C 5.796875 -11.503906 4.6875 -12.390625 3.90625 -13.453125 C 3.125 -14.515625 2.734375 -15.660156 2.734375 -16.890625 C 2.734375 -19.015625 3.515625 -20.75 5.078125 -22.09375 C 6.648438 -23.445312 8.441406 -24.125 10.453125 -24.125 Z M 10.453125 -24.125 "/></g></g></g><g fill="#ebe8e8" fill-opacity="1"><g transform="translate(325.008348, 82.18127)"><g><path d="M 7.125 -9.5 L 7.125 0 L 1.71875 0 L 1.71875 -23.6875 L 7.125 -23.6875 L 7.125 -14.25 L 14.765625 -14.25 L 14.765625 -23.6875 L 20.15625 -23.6875 L 20.15625 0 L 14.765625 0 L 14.765625 -9.5 Z M 7.125 -9.5 "/></g></g></g><g fill="#ffde59" fill-opacity="1"><g transform="translate(172.016604, 101.451045)"><g><path d="M 1.351562 0 L 2.082031 0 L 2.082031 -3.734375 L 5.660156 -3.734375 L 5.660156 -4.402344 L 2.082031 -4.402344 L 2.082031 -7.695312 L 5.972656 -7.695312 L 5.972656 -8.375 L 1.351562 -8.375 Z M 1.351562 0 "/></g></g></g><g fill="#ffde59" fill-opacity="1"><g transform="translate(188.29158, 101.451045)"><g><path d="M 1.351562 0 L 2.082031 0 L 2.082031 -8.375 L 1.351562 -8.375 Z M 1.351562 0 "/></g></g></g><g fill="#ffde59" fill-opacity="1"><g transform="translate(201.300363, 101.451045)"><g><path d="M 1.351562 0 L 2.070312 0 L 2.070312 -7.132812 L 7.167969 0 L 7.847656 0 L 7.847656 -8.375 L 7.132812 -8.375 L 7.132812 -1.257812 L 2.035156 -8.375 L 1.351562 -8.375 Z M 1.351562 0 "/></g></g></g><g fill="#ffde59" fill-opacity="1"><g transform="translate(220.07582, 101.451045)"><g><path d="M 0.261719 0 L 1.042969 0 L 1.902344 -2.105469 L 6.257812 -2.105469 L 7.132812 0 L 7.898438 0 L 4.425781 -8.375 L 3.734375 -8.375 Z M 2.191406 -2.777344 L 4.082031 -7.382812 L 5.984375 -2.777344 Z M 2.191406 -2.777344 "/></g></g></g><g fill="#ffde59" fill-opacity="1"><g transform="translate(237.822368, 101.451045)"><g><path d="M 1.351562 0 L 2.070312 0 L 2.070312 -7.132812 L 7.167969 0 L 7.847656 0 L 7.847656 -8.375 L 7.132812 -8.375 L 7.132812 -1.257812 L 2.035156 -8.375 L 1.351562 -8.375 Z M 1.351562 0 "/></g></g></g><g fill="#ffde59" fill-opacity="1"><g transform="translate(256.597821, 101.451045)"><g><path d="M 4.164062 2.980469 L 4.859375 2.980469 C 5.660156 2.980469 6.152344 2.5625 6.152344 1.878906 C 6.152344 1.234375 5.707031 0.824219 4.988281 0.777344 L 5.21875 0.15625 C 7.097656 0.0703125 8.628906 -1.066406 9.117188 -2.8125 L 8.351562 -2.8125 C 7.886719 -1.425781 6.59375 -0.574219 5.027344 -0.574219 C 2.980469 -0.574219 1.507812 -2.046875 1.507812 -4.1875 C 1.507812 -6.328125 2.980469 -7.800781 5.027344 -7.800781 C 6.558594 -7.800781 7.800781 -6.988281 8.28125 -5.660156 L 9.046875 -5.660156 C 8.496094 -7.417969 6.929688 -8.53125 5.015625 -8.53125 C 2.546875 -8.53125 0.765625 -6.738281 0.765625 -4.1875 C 0.765625 -1.746094 2.394531 0 4.691406 0.144531 L 4.34375 1.136719 L 4.4375 1.269531 L 4.808594 1.269531 C 5.277344 1.269531 5.527344 1.472656 5.527344 1.84375 C 5.527344 2.214844 5.277344 2.417969 4.808594 2.417969 L 4.164062 2.417969 Z M 4.164062 2.980469 "/></g></g></g><g fill="#ffde59" fill-opacity="1"><g transform="translate(276.007373, 101.451045)"><g><path d="M 0.261719 0 L 1.042969 0 L 1.902344 -2.105469 L 6.257812 -2.105469 L 7.132812 0 L 7.898438 0 L 4.425781 -8.375 L 3.734375 -8.375 Z M 2.191406 -2.777344 L 4.082031 -7.382812 L 5.984375 -2.777344 Z M 2.191406 -2.777344 "/></g></g></g><g fill="#ffde59" fill-opacity="1"><g transform="translate(293.753927, 101.451045)"><g><path d="M 4.042969 0.15625 C 5.863281 0.15625 7.011719 -0.730469 7.011719 -2.128906 C 7.011719 -3.328125 6.199219 -4.070312 4.082031 -4.558594 C 2.320312 -4.953125 1.699219 -5.46875 1.699219 -6.304688 C 1.699219 -7.226562 2.488281 -7.835938 3.839844 -7.835938 C 5.242188 -7.835938 6.089844 -7.167969 6.152344 -5.984375 L 6.867188 -5.984375 C 6.808594 -7.597656 5.683594 -8.53125 3.839844 -8.53125 C 2.058594 -8.53125 0.96875 -7.644531 0.96875 -6.304688 C 0.96875 -5.050781 1.84375 -4.355469 3.902344 -3.875 C 5.589844 -3.507812 6.269531 -2.992188 6.269531 -2.117188 C 6.269531 -1.148438 5.421875 -0.539062 4.042969 -0.539062 C 2.597656 -0.539062 1.628906 -1.257812 1.554688 -2.488281 L 0.835938 -2.488281 C 0.898438 -0.875 2.128906 0.15625 4.042969 0.15625 Z M 4.042969 0.15625 "/></g></g></g></svg>