<svg xmlns="http://www.w3.org/2000/svg" xmlns:xlink="http://www.w3.org/1999/xlink" width="500" zoomAndPan="magnify" viewBox="0 0 375 149.999998" height="200" preserveAspectRatio="xMidYMid meet" version="1.0"><defs><g/></defs><path fill="#201e1e" d="M 217.460938 44.792969 C 215.980469 44.015625 215.539062 43.082031 215.613281 42.523438 C 215.648438 42.265625 215.78125 42.082031 215.964844 42.042969 C 215.992188 42.035156 216.023438 42.03125 216.054688 42.03125 C 216.335938 42.03125 216.785156 42.285156 217.257812 43.015625 C 217.746094 43.773438 218.011719 44.445312 218.054688 45.027344 C 217.867188 44.980469 217.667969 44.902344 217.460938 44.792969 Z M 215.558594 45.855469 C 215.863281 46.082031 216.199219 46.296875 216.570312 46.492188 C 216.789062 46.605469 217.011719 46.703125 217.230469 46.78125 C 216.984375 46.980469 216.707031 47.148438 216.425781 47.289062 C 216.152344 46.800781 215.863281 46.320312 215.558594 45.855469 Z M 206.695312 78.113281 L 206.089844 85.660156 C 206.089844 85.660156 205.316406 86.265625 203.925781 86.265625 C 203.210938 86.265625 202.335938 86.105469 201.316406 85.625 L 200.097656 81.285156 C 198.148438 81.851562 196.101562 82.167969 193.972656 82.167969 C 193.972656 82.167969 190.855469 82.21875 187.921875 82.21875 C 184.988281 82.21875 182.332031 82.167969 182.332031 82.167969 C 180.328125 82.167969 178.394531 81.875 176.546875 81.375 L 175.359375 85.625 C 174.398438 86.042969 173.570312 86.183594 172.886719 86.183594 C 171.398438 86.183594 170.585938 85.515625 170.585938 85.515625 L 170.179688 78.507812 C 165.855469 75.644531 162.597656 71.308594 161.117188 66.203125 L 156.683594 64.828125 C 156.683594 64.828125 155.535156 61.367188 155.871094 57.316406 L 160.886719 54.671875 C 162.214844 49.285156 165.484375 44.664062 169.9375 41.632812 L 167.679688 33.570312 C 167.679688 33.570312 168.722656 33.164062 170.171875 33.164062 C 172.3125 33.164062 175.347656 34.050781 177.242188 38.4375 C 178.21875 38.207031 179.21875 38.042969 180.238281 37.9375 C 180.386719 39.710938 181.203125 41.289062 182.4375 42.425781 C 181.320312 42.496094 180.644531 42.566406 180.558594 42.574219 C 179.886719 42.648438 179.398438 43.253906 179.46875 43.929688 C 179.542969 44.609375 180.160156 45.089844 180.820312 45.023438 C 180.890625 45.011719 187.632812 44.308594 195.269531 45.1875 C 195.320312 45.191406 195.367188 45.195312 195.414062 45.195312 C 196.027344 45.195312 196.558594 44.734375 196.628906 44.105469 C 196.707031 43.429688 196.222656 42.820312 195.550781 42.742188 C 194.25 42.59375 192.980469 42.488281 191.761719 42.417969 C 193.015625 41.253906 193.835938 39.632812 193.957031 37.820312 C 193.960938 37.824219 193.972656 37.824219 193.972656 37.824219 C 206.183594 37.824219 216.089844 47.753906 216.089844 59.992188 C 216.089844 67.488281 212.371094 74.097656 206.695312 78.113281 Z M 189.867188 33.898438 C 190.117188 34.101562 190.34375 34.328125 190.546875 34.578125 C 190.554688 34.59375 190.566406 34.605469 190.574219 34.617188 C 190.660156 34.726562 190.738281 34.835938 190.8125 34.953125 C 190.835938 34.984375 190.855469 35.019531 190.875 35.054688 C 190.933594 35.152344 190.992188 35.25 191.042969 35.351562 C 191.066406 35.398438 191.085938 35.441406 191.109375 35.488281 C 191.152344 35.582031 191.191406 35.679688 191.230469 35.777344 C 191.25 35.828125 191.269531 35.882812 191.289062 35.933594 C 191.320312 36.03125 191.347656 36.128906 191.375 36.230469 C 191.390625 36.285156 191.40625 36.339844 191.417969 36.394531 C 191.441406 36.5 191.457031 36.609375 191.472656 36.71875 C 191.480469 36.769531 191.492188 36.820312 191.496094 36.871094 C 191.515625 37.03125 191.523438 37.191406 191.523438 37.359375 C 191.523438 37.453125 191.515625 37.542969 191.511719 37.636719 C 191.367188 39.953125 189.445312 41.800781 187.09375 41.800781 C 184.796875 41.800781 182.902344 40.039062 182.683594 37.792969 C 182.671875 37.648438 182.664062 37.503906 182.664062 37.359375 C 182.664062 37.195312 182.671875 37.035156 182.6875 36.878906 C 182.695312 36.832031 182.703125 36.785156 182.710938 36.738281 C 182.726562 36.628906 182.742188 36.519531 182.765625 36.414062 C 182.777344 36.363281 182.789062 36.316406 182.804688 36.265625 C 182.832031 36.164062 182.855469 36.0625 182.890625 35.960938 C 182.90625 35.914062 182.921875 35.871094 182.941406 35.824219 C 182.976562 35.722656 183.015625 35.625 183.0625 35.527344 C 183.078125 35.488281 183.097656 35.449219 183.117188 35.410156 C 183.167969 35.304688 183.222656 35.207031 183.277344 35.109375 C 183.296875 35.078125 183.316406 35.046875 183.335938 35.015625 C 183.398438 34.910156 183.46875 34.8125 183.542969 34.714844 C 183.558594 34.691406 183.574219 34.667969 183.589844 34.648438 C 183.671875 34.542969 183.757812 34.4375 183.851562 34.339844 C 183.863281 34.328125 183.871094 34.316406 183.882812 34.304688 C 183.984375 34.195312 184.09375 34.089844 184.210938 33.992188 C 184.984375 33.324219 185.992188 32.917969 187.09375 32.917969 C 188.144531 32.917969 189.109375 33.285156 189.867188 33.898438 Z M 219.566406 46.914062 C 220.347656 46.726562 221.074219 46.300781 221.65625 45.652344 C 222.882812 44.285156 223.070312 42.414062 222.125 40.992188 C 221.832031 40.554688 221.238281 40.4375 220.800781 40.726562 C 220.359375 41.023438 220.242188 41.617188 220.535156 42.058594 C 221.054688 42.84375 220.761719 43.785156 220.234375 44.367188 C 220.171875 44.433594 220.074219 44.535156 219.941406 44.640625 C 219.832031 43.800781 219.472656 42.910156 218.863281 41.972656 C 217.964844 40.578125 216.71875 39.90625 215.542969 40.167969 C 214.574219 40.390625 213.855469 41.214844 213.714844 42.273438 C 213.664062 42.675781 213.691406 43.078125 213.796875 43.472656 C 209.113281 37.828125 202.082031 34.210938 194.222656 34.132812 C 193.988281 34.105469 193.621094 34.070312 193.125 34.03125 C 191.949219 31.902344 189.6875 30.457031 187.09375 30.457031 C 184.441406 30.457031 182.136719 31.96875 180.988281 34.179688 C 180.382812 34.214844 179.777344 34.261719 179.167969 34.339844 C 176.992188 31.214844 173.828125 29.476562 170.171875 29.476562 C 168.132812 29.472656 166.625 30.023438 166.34375 30.132812 C 164.578125 30.820312 163.625 32.742188 164.136719 34.570312 L 165.71875 40.21875 C 162.007812 43.355469 159.253906 47.480469 157.777344 52.140625 L 154.15625 54.050781 C 153.042969 54.636719 152.304688 55.753906 152.203125 57.011719 C 151.816406 61.679688 153.046875 65.5625 153.1875 65.992188 C 153.5625 67.121094 154.460938 68 155.59375 68.351562 L 158.230469 69.167969 C 159.917969 73.636719 162.824219 77.558594 166.609375 80.480469 L 166.910156 85.730469 C 166.972656 86.753906 167.453125 87.707031 168.242188 88.359375 C 168.671875 88.714844 170.277344 89.875 172.886719 89.875 C 174.175781 89.875 175.5 89.585938 176.816406 89.015625 C 177.835938 88.574219 178.605469 87.695312 178.902344 86.621094 L 179.175781 85.652344 C 180.230469 85.789062 181.285156 85.855469 182.332031 85.855469 C 182.308594 85.855469 184.976562 85.90625 187.921875 85.90625 C 190.886719 85.90625 194.035156 85.855469 194.035156 85.855469 C 194.035156 85.855469 194.035156 85.855469 194.039062 85.855469 C 195.175781 85.855469 196.332031 85.773438 197.488281 85.609375 L 197.773438 86.628906 C 198.0625 87.660156 198.785156 88.511719 199.753906 88.96875 C 201.144531 89.621094 202.546875 89.953125 203.925781 89.953125 C 206.390625 89.953125 207.9375 88.894531 208.355469 88.570312 C 209.167969 87.933594 209.679688 86.984375 209.761719 85.957031 L 210.234375 80.050781 C 216.234375 75.15625 219.769531 67.78125 219.769531 59.992188 C 219.769531 56.058594 218.886719 52.328125 217.3125 48.988281 C 218.152344 48.5625 219.054688 47.90625 219.566406 46.914062 " fill-opacity="1" fill-rule="nonzero"/><path fill="#201e1e" d="M 168.339844 48.34375 C 167.230469 48.34375 166.363281 49.453125 166.363281 50.867188 C 166.363281 52.28125 167.230469 53.386719 168.339844 53.386719 C 169.453125 53.386719 170.320312 52.28125 170.320312 50.867188 C 170.320312 49.453125 169.453125 48.34375 168.339844 48.34375 " fill-opacity="1" fill-rule="nonzero"/><path fill="#201e1e" d="M 184.265625 61.238281 C 183.925781 60.90625 183.6875 60.554688 183.554688 60.199219 C 183.410156 59.789062 183.320312 59.382812 183.285156 58.992188 C 183.21875 57.757812 183.605469 56.71875 184.472656 55.8125 C 185.179688 55.074219 186.1875 54.605469 187.476562 54.421875 L 187.476562 62.820312 C 186.804688 62.683594 186.246094 62.503906 185.800781 62.28125 C 185.164062 61.957031 184.644531 61.601562 184.265625 61.238281 Z M 193.0625 72.574219 C 192.800781 72.898438 192.414062 73.199219 191.914062 73.46875 C 191.59375 73.640625 191.1875 73.773438 190.703125 73.863281 L 190.703125 66.21875 C 191.664062 66.519531 192.390625 66.949219 192.863281 67.5 C 193.492188 68.222656 193.792969 69.335938 193.761719 70.8125 L 193.761719 70.832031 C 193.761719 70.929688 193.738281 71.160156 193.601562 71.609375 C 193.5 71.933594 193.324219 72.25 193.0625 72.574219 Z M 195.546875 66.332031 C 195.078125 65.613281 194.390625 64.960938 193.507812 64.402344 C 192.773438 63.925781 191.851562 63.5625 190.703125 63.300781 L 190.703125 54.714844 C 190.921875 54.804688 191.121094 54.914062 191.304688 55.039062 C 191.773438 55.355469 192.175781 55.71875 192.496094 56.117188 C 192.804688 56.496094 193.039062 56.921875 193.1875 57.375 C 193.351562 57.875 193.449219 58.347656 193.488281 58.8125 C 193.601562 59.789062 194.304688 60.152344 194.988281 60.085938 C 195.316406 60.042969 196.101562 59.828125 196.34375 58.523438 C 196.296875 56.558594 195.660156 54.953125 194.460938 53.761719 C 193.449219 52.761719 192.191406 52.105469 190.703125 51.800781 L 190.703125 50.519531 C 190.703125 49.886719 190.402344 49.5 190.128906 49.269531 C 189.464844 48.746094 188.578125 48.757812 187.960938 49.320312 C 187.738281 49.53125 187.476562 49.910156 187.476562 50.519531 L 187.476562 51.621094 C 186.582031 51.710938 185.738281 51.90625 184.953125 52.199219 C 183.929688 52.585938 183.046875 53.125 182.332031 53.808594 C 181.621094 54.488281 181.078125 55.292969 180.714844 56.203125 C 180.351562 57.132812 180.214844 58.117188 180.308594 59.148438 C 180.515625 61.035156 181.308594 62.578125 182.660156 63.742188 C 183.859375 64.765625 185.457031 65.414062 187.476562 65.683594 L 187.476562 73.917969 C 186.035156 73.765625 184.894531 73.375 184.078125 72.761719 C 183.113281 72.023438 182.523438 71.152344 182.300781 70.167969 C 182.21875 69.597656 181.789062 68.980469 180.824219 68.945312 C 180.246094 68.914062 179.882812 69.164062 179.703125 69.375 C 179.527344 69.585938 179.339844 69.953125 179.460938 70.503906 C 179.828125 72.507812 180.863281 74.058594 182.53125 75.121094 C 183.917969 76 185.578125 76.53125 187.476562 76.703125 L 187.476562 77.710938 C 187.476562 78.335938 187.746094 78.714844 187.984375 78.929688 C 188.292969 79.203125 188.664062 79.347656 189.058594 79.347656 C 189.433594 79.347656 189.789062 79.21875 190.136719 78.957031 C 190.503906 78.660156 190.703125 78.21875 190.703125 77.710938 L 190.703125 76.671875 C 192.527344 76.414062 193.921875 75.761719 194.867188 74.726562 C 195.910156 73.566406 196.492188 72.273438 196.582031 70.921875 C 196.65625 70.214844 196.617188 69.472656 196.46875 68.652344 C 196.3125 67.824219 196.003906 67.046875 195.546875 66.332031 " fill-opacity="1" fill-rule="nonzero"/><path fill="#201e1e" d="M 196.25 22.992188 C 197.09375 22.992188 197.78125 23.679688 197.78125 24.527344 C 197.78125 25.375 197.09375 26.0625 196.25 26.0625 C 195.40625 26.0625 194.71875 25.375 194.71875 24.527344 C 194.71875 23.679688 195.40625 22.992188 196.25 22.992188 Z M 196.25 28.523438 C 198.449219 28.523438 200.234375 26.730469 200.234375 24.527344 C 200.234375 22.324219 198.449219 20.53125 196.25 20.53125 C 194.054688 20.53125 192.265625 22.324219 192.265625 24.527344 C 192.265625 26.730469 194.054688 28.523438 196.25 28.523438 " fill-opacity="1" fill-rule="nonzero"/><path fill="#201e1e" d="M 183.652344 17.503906 C 185.261719 17.503906 186.570312 18.816406 186.570312 20.429688 C 186.570312 22.042969 185.261719 23.355469 183.652344 23.355469 C 182.042969 23.355469 180.738281 22.042969 180.738281 20.429688 C 180.738281 18.816406 182.042969 17.503906 183.652344 17.503906 Z M 183.652344 25.816406 C 186.613281 25.816406 189.023438 23.398438 189.023438 20.429688 C 189.023438 17.460938 186.613281 15.046875 183.652344 15.046875 C 180.691406 15.046875 178.28125 17.460938 178.28125 20.429688 C 178.28125 23.398438 180.691406 25.816406 183.652344 25.816406 " fill-opacity="1" fill-rule="nonzero"/><g fill="#5d5e60" fill-opacity="1"><g transform="translate(121.655307, 116.748978)"><g><path d="M 6.25 -14.4375 C 7.019531 -14.4375 7.769531 -14.320312 8.5 -14.09375 C 9.238281 -13.875 9.785156 -13.65625 10.140625 -13.4375 L 10.65625 -13.09375 L 9.34375 -10.515625 C 9.25 -10.585938 9.109375 -10.675781 8.921875 -10.78125 C 8.734375 -10.894531 8.390625 -11.039062 7.890625 -11.21875 C 7.390625 -11.40625 6.921875 -11.5 6.484375 -11.5 C 5.941406 -11.5 5.523438 -11.382812 5.234375 -11.15625 C 4.941406 -10.925781 4.796875 -10.617188 4.796875 -10.234375 C 4.796875 -10.035156 4.863281 -9.851562 5 -9.6875 C 5.132812 -9.519531 5.367188 -9.34375 5.703125 -9.15625 C 6.035156 -8.96875 6.328125 -8.816406 6.578125 -8.703125 C 6.835938 -8.585938 7.226562 -8.414062 7.75 -8.1875 C 8.664062 -7.789062 9.445312 -7.257812 10.09375 -6.59375 C 10.738281 -5.925781 11.0625 -5.164062 11.0625 -4.3125 C 11.0625 -3.5 10.914062 -2.785156 10.625 -2.171875 C 10.332031 -1.566406 9.929688 -1.09375 9.421875 -0.75 C 8.910156 -0.40625 8.347656 -0.148438 7.734375 0.015625 C 7.117188 0.179688 6.445312 0.265625 5.71875 0.265625 C 5.101562 0.265625 4.5 0.195312 3.90625 0.0625 C 3.3125 -0.0625 2.8125 -0.21875 2.40625 -0.40625 C 2.007812 -0.59375 1.648438 -0.773438 1.328125 -0.953125 C 1.003906 -1.140625 0.769531 -1.296875 0.625 -1.421875 L 0.390625 -1.609375 L 2.015625 -4.328125 C 2.148438 -4.210938 2.335938 -4.066406 2.578125 -3.890625 C 2.816406 -3.710938 3.242188 -3.472656 3.859375 -3.171875 C 4.472656 -2.878906 5.015625 -2.734375 5.484375 -2.734375 C 6.847656 -2.734375 7.53125 -3.195312 7.53125 -4.125 C 7.53125 -4.320312 7.476562 -4.503906 7.375 -4.671875 C 7.28125 -4.835938 7.109375 -5.003906 6.859375 -5.171875 C 6.617188 -5.335938 6.40625 -5.46875 6.21875 -5.5625 C 6.03125 -5.65625 5.71875 -5.800781 5.28125 -6 C 4.851562 -6.207031 4.535156 -6.363281 4.328125 -6.46875 C 3.472656 -6.882812 2.8125 -7.410156 2.34375 -8.046875 C 1.875 -8.679688 1.640625 -9.367188 1.640625 -10.109375 C 1.640625 -11.378906 2.109375 -12.414062 3.046875 -13.21875 C 3.984375 -14.03125 5.050781 -14.4375 6.25 -14.4375 Z M 6.25 -14.4375 "/></g></g></g><g fill="#5d5e60" fill-opacity="1"><g transform="translate(136.637508, 116.748978)"><g><path d="M 8.234375 -14.1875 L 13.953125 0 L 10.484375 0 L 9.4375 -2.84375 L 4.046875 -2.84375 L 2.984375 0 L -0.484375 0 L 5.25 -14.1875 Z M 8.34375 -5.671875 L 6.75 -9.796875 L 6.71875 -9.796875 L 5.140625 -5.671875 Z M 8.34375 -5.671875 "/></g></g></g><g fill="#5d5e60" fill-opacity="1"><g transform="translate(153.544034, 116.748978)"><g><path d="M 5.46875 0 L -0.484375 -14.1875 L 3.15625 -14.1875 L 6.734375 -4.859375 L 10.3125 -14.1875 L 13.953125 -14.1875 L 8.015625 0 Z M 5.46875 0 "/></g></g></g><g fill="#5d5e60" fill-opacity="1"><g transform="translate(170.450559, 116.748978)"><g><path d="M 9.140625 -14.1875 L 9.140625 -11.34375 L 4.265625 -11.34375 L 4.265625 -8.53125 L 8.9375 -8.53125 L 8.9375 -5.6875 L 4.265625 -5.6875 L 4.265625 -2.84375 L 9.140625 -2.84375 L 9.140625 0 L 1.03125 0 L 1.03125 -14.1875 Z M 9.140625 -14.1875 "/></g></g></g><g fill="#5d5e60" fill-opacity="1"><g transform="translate(183.852073, 116.748978)"><g/></g></g><g fill="#5d5e60" fill-opacity="1"><g transform="translate(191.978887, 116.748978)"><g><path d="M 8.578125 -2.921875 C 9.066406 -2.921875 9.539062 -2.992188 10 -3.140625 C 10.46875 -3.296875 10.8125 -3.441406 11.03125 -3.578125 L 11.359375 -3.796875 L 12.734375 -1.046875 C 12.691406 -1.015625 12.628906 -0.96875 12.546875 -0.90625 C 12.460938 -0.851562 12.273438 -0.75 11.984375 -0.59375 C 11.691406 -0.4375 11.378906 -0.300781 11.046875 -0.1875 C 10.710938 -0.0703125 10.273438 0.03125 9.734375 0.125 C 9.203125 0.21875 8.648438 0.265625 8.078125 0.265625 C 6.765625 0.265625 5.515625 -0.0546875 4.328125 -0.703125 C 3.148438 -1.359375 2.195312 -2.253906 1.46875 -3.390625 C 0.75 -4.523438 0.390625 -5.75 0.390625 -7.0625 C 0.390625 -8.0625 0.601562 -9.019531 1.03125 -9.9375 C 1.457031 -10.851562 2.019531 -11.632812 2.71875 -12.28125 C 3.425781 -12.9375 4.25 -13.457031 5.1875 -13.84375 C 6.125 -14.238281 7.085938 -14.4375 8.078125 -14.4375 C 8.992188 -14.4375 9.835938 -14.328125 10.609375 -14.109375 C 11.390625 -13.890625 11.9375 -13.671875 12.25 -13.453125 L 12.734375 -13.125 L 11.359375 -10.375 C 11.273438 -10.445312 11.15625 -10.53125 11 -10.625 C 10.84375 -10.726562 10.519531 -10.859375 10.03125 -11.015625 C 9.550781 -11.179688 9.066406 -11.265625 8.578125 -11.265625 C 7.796875 -11.265625 7.09375 -11.132812 6.46875 -10.875 C 5.851562 -10.625 5.363281 -10.289062 5 -9.875 C 4.644531 -9.46875 4.375 -9.023438 4.1875 -8.546875 C 4 -8.078125 3.90625 -7.59375 3.90625 -7.09375 C 3.90625 -6.019531 4.304688 -5.054688 5.109375 -4.203125 C 5.921875 -3.347656 7.078125 -2.921875 8.578125 -2.921875 Z M 8.578125 -2.921875 "/></g></g></g><g fill="#5d5e60" fill-opacity="1"><g transform="translate(208.352784, 116.748978)"><g><path d="M 8.234375 -14.1875 L 13.953125 0 L 10.484375 0 L 9.4375 -2.84375 L 4.046875 -2.84375 L 2.984375 0 L -0.484375 0 L 5.25 -14.1875 Z M 8.34375 -5.671875 L 6.75 -9.796875 L 6.71875 -9.796875 L 5.140625 -5.671875 Z M 8.34375 -5.671875 "/></g></g></g><g fill="#5d5e60" fill-opacity="1"><g transform="translate(225.259306, 116.748978)"><g><path d="M 6.25 -14.4375 C 7.019531 -14.4375 7.769531 -14.320312 8.5 -14.09375 C 9.238281 -13.875 9.785156 -13.65625 10.140625 -13.4375 L 10.65625 -13.09375 L 9.34375 -10.515625 C 9.25 -10.585938 9.109375 -10.675781 8.921875 -10.78125 C 8.734375 -10.894531 8.390625 -11.039062 7.890625 -11.21875 C 7.390625 -11.40625 6.921875 -11.5 6.484375 -11.5 C 5.941406 -11.5 5.523438 -11.382812 5.234375 -11.15625 C 4.941406 -10.925781 4.796875 -10.617188 4.796875 -10.234375 C 4.796875 -10.035156 4.863281 -9.851562 5 -9.6875 C 5.132812 -9.519531 5.367188 -9.34375 5.703125 -9.15625 C 6.035156 -8.96875 6.328125 -8.816406 6.578125 -8.703125 C 6.835938 -8.585938 7.226562 -8.414062 7.75 -8.1875 C 8.664062 -7.789062 9.445312 -7.257812 10.09375 -6.59375 C 10.738281 -5.925781 11.0625 -5.164062 11.0625 -4.3125 C 11.0625 -3.5 10.914062 -2.785156 10.625 -2.171875 C 10.332031 -1.566406 9.929688 -1.09375 9.421875 -0.75 C 8.910156 -0.40625 8.347656 -0.148438 7.734375 0.015625 C 7.117188 0.179688 6.445312 0.265625 5.71875 0.265625 C 5.101562 0.265625 4.5 0.195312 3.90625 0.0625 C 3.3125 -0.0625 2.8125 -0.21875 2.40625 -0.40625 C 2.007812 -0.59375 1.648438 -0.773438 1.328125 -0.953125 C 1.003906 -1.140625 0.769531 -1.296875 0.625 -1.421875 L 0.390625 -1.609375 L 2.015625 -4.328125 C 2.148438 -4.210938 2.335938 -4.066406 2.578125 -3.890625 C 2.816406 -3.710938 3.242188 -3.472656 3.859375 -3.171875 C 4.472656 -2.878906 5.015625 -2.734375 5.484375 -2.734375 C 6.847656 -2.734375 7.53125 -3.195312 7.53125 -4.125 C 7.53125 -4.320312 7.476562 -4.503906 7.375 -4.671875 C 7.28125 -4.835938 7.109375 -5.003906 6.859375 -5.171875 C 6.617188 -5.335938 6.40625 -5.46875 6.21875 -5.5625 C 6.03125 -5.65625 5.71875 -5.800781 5.28125 -6 C 4.851562 -6.207031 4.535156 -6.363281 4.328125 -6.46875 C 3.472656 -6.882812 2.8125 -7.410156 2.34375 -8.046875 C 1.875 -8.679688 1.640625 -9.367188 1.640625 -10.109375 C 1.640625 -11.378906 2.109375 -12.414062 3.046875 -13.21875 C 3.984375 -14.03125 5.050781 -14.4375 6.25 -14.4375 Z M 6.25 -14.4375 "/></g></g></g><g fill="#5d5e60" fill-opacity="1"><g transform="translate(240.241504, 116.748978)"><g><path d="M 4.265625 -5.6875 L 4.265625 0 L 1.03125 0 L 1.03125 -14.1875 L 4.265625 -14.1875 L 4.265625 -8.53125 L 8.828125 -8.53125 L 8.828125 -14.1875 L 12.0625 -14.1875 L 12.0625 0 L 8.828125 0 L 8.828125 -5.6875 Z M 4.265625 -5.6875 "/></g></g></g><g fill="#5d5e60" fill-opacity="1"><g transform="translate(148.736093, 132.494376)"><g><path d="M 0.808594 0 L 1.246094 0 L 1.246094 -2.234375 L 3.386719 -2.234375 L 3.386719 -2.632812 L 1.246094 -2.632812 L 1.246094 -4.601562 L 3.570312 -4.601562 L 3.570312 -5.011719 L 0.808594 -5.011719 Z M 0.808594 0 "/></g></g></g><g fill="#5d5e60" fill-opacity="1"><g transform="translate(158.470669, 132.494376)"><g><path d="M 0.808594 0 L 1.246094 0 L 1.246094 -5.011719 L 0.808594 -5.011719 Z M 0.808594 0 "/></g></g></g><g fill="#5d5e60" fill-opacity="1"><g transform="translate(166.251632, 132.494376)"><g><path d="M 0.808594 0 L 1.238281 0 L 1.238281 -4.265625 L 4.289062 0 L 4.695312 0 L 4.695312 -5.011719 L 4.265625 -5.011719 L 4.265625 -0.75 L 1.214844 -5.011719 L 0.808594 -5.011719 Z M 0.808594 0 "/></g></g></g><g fill="#5d5e60" fill-opacity="1"><g transform="translate(177.481825, 132.494376)"><g><path d="M 0.15625 0 L 0.621094 0 L 1.136719 -1.257812 L 3.742188 -1.257812 L 4.265625 0 L 4.722656 0 L 2.648438 -5.011719 L 2.234375 -5.011719 Z M 1.308594 -1.660156 L 2.441406 -4.414062 L 3.578125 -1.660156 Z M 1.308594 -1.660156 "/></g></g></g><g fill="#5d5e60" fill-opacity="1"><g transform="translate(188.096595, 132.494376)"><g><path d="M 0.808594 0 L 1.238281 0 L 1.238281 -4.265625 L 4.289062 0 L 4.695312 0 L 4.695312 -5.011719 L 4.265625 -5.011719 L 4.265625 -0.75 L 1.214844 -5.011719 L 0.808594 -5.011719 Z M 0.808594 0 "/></g></g></g><g fill="#5d5e60" fill-opacity="1"><g transform="translate(199.326785, 132.494376)"><g><path d="M 2.492188 1.78125 L 2.90625 1.78125 C 3.386719 1.78125 3.679688 1.53125 3.679688 1.125 C 3.679688 0.738281 3.414062 0.492188 2.984375 0.464844 L 3.121094 0.09375 C 4.246094 0.0429688 5.160156 -0.636719 5.453125 -1.683594 L 4.996094 -1.683594 C 4.714844 -0.851562 3.945312 -0.34375 3.007812 -0.34375 C 1.78125 -0.34375 0.902344 -1.222656 0.902344 -2.503906 C 0.902344 -3.785156 1.78125 -4.667969 3.007812 -4.667969 C 3.921875 -4.667969 4.667969 -4.179688 4.953125 -3.386719 L 5.410156 -3.386719 C 5.082031 -4.4375 4.144531 -5.101562 3 -5.101562 C 1.523438 -5.101562 0.457031 -4.03125 0.457031 -2.503906 C 0.457031 -1.046875 1.429688 0 2.804688 0.0859375 L 2.597656 0.679688 L 2.65625 0.757812 L 2.878906 0.757812 C 3.15625 0.757812 3.304688 0.878906 3.304688 1.101562 C 3.304688 1.324219 3.15625 1.445312 2.878906 1.445312 L 2.492188 1.445312 Z M 2.492188 1.78125 "/></g></g></g><g fill="#5d5e60" fill-opacity="1"><g transform="translate(210.936251, 132.494376)"><g><path d="M 0.15625 0 L 0.621094 0 L 1.136719 -1.257812 L 3.742188 -1.257812 L 4.265625 0 L 4.722656 0 L 2.648438 -5.011719 L 2.234375 -5.011719 Z M 1.308594 -1.660156 L 2.441406 -4.414062 L 3.578125 -1.660156 Z M 1.308594 -1.660156 "/></g></g></g><g fill="#5d5e60" fill-opacity="1"><g transform="translate(221.551024, 132.494376)"><g><path d="M 2.417969 0.09375 C 3.507812 0.09375 4.195312 -0.4375 4.195312 -1.273438 C 4.195312 -1.988281 3.707031 -2.433594 2.441406 -2.726562 C 1.386719 -2.964844 1.015625 -3.269531 1.015625 -3.773438 C 1.015625 -4.324219 1.488281 -4.6875 2.296875 -4.6875 C 3.136719 -4.6875 3.644531 -4.289062 3.679688 -3.578125 L 4.109375 -3.578125 C 4.074219 -4.542969 3.398438 -5.101562 2.296875 -5.101562 C 1.230469 -5.101562 0.578125 -4.574219 0.578125 -3.773438 C 0.578125 -3.019531 1.101562 -2.605469 2.332031 -2.320312 C 3.34375 -2.097656 3.75 -1.789062 3.75 -1.265625 C 3.75 -0.6875 3.242188 -0.320312 2.417969 -0.320312 C 1.554688 -0.320312 0.972656 -0.75 0.929688 -1.488281 L 0.5 -1.488281 C 0.535156 -0.523438 1.273438 0.09375 2.417969 0.09375 Z M 2.417969 0.09375 "/></g></g></g></svg>