<svg xmlns="http://www.w3.org/2000/svg" xmlns:xlink="http://www.w3.org/1999/xlink" width="500" zoomAndPan="magnify" viewBox="0 0 375 374.999991" height="500" preserveAspectRatio="xMidYMid meet" version="1.0"><defs><g/><clipPath id="56424f1a33"><path d="M 118 98 L 257 98 L 257 216.460938 L 118 216.460938 Z M 118 98 " clip-rule="nonzero"/></clipPath><clipPath id="f90c293832"><path d="M 169 70.210938 L 191 70.210938 L 191 92 L 169 92 Z M 169 70.210938 " clip-rule="nonzero"/></clipPath></defs><g clip-path="url(#56424f1a33)"><path fill="#ffde59" d="M 246.316406 128.304688 C 243.417969 126.785156 242.558594 124.972656 242.703125 123.878906 C 242.765625 123.378906 243.03125 123.019531 243.386719 122.9375 C 243.441406 122.925781 243.503906 122.917969 243.5625 122.917969 C 244.117188 122.917969 244.996094 123.410156 245.921875 124.839844 C 246.875 126.3125 247.398438 127.628906 247.480469 128.765625 C 247.113281 128.667969 246.726562 128.519531 246.316406 128.304688 Z M 242.589844 130.375 C 243.1875 130.820312 243.847656 131.238281 244.574219 131.617188 C 245.003906 131.84375 245.4375 132.027344 245.871094 132.179688 C 245.386719 132.570312 244.84375 132.898438 244.292969 133.171875 C 243.753906 132.21875 243.1875 131.285156 242.589844 130.375 Z M 225.238281 193.28125 L 224.058594 208 C 224.058594 208 222.542969 209.179688 219.816406 209.179688 C 218.417969 209.179688 216.703125 208.871094 214.707031 207.9375 L 212.320312 199.46875 C 208.507812 200.570312 204.496094 201.1875 200.332031 201.1875 C 200.332031 201.1875 194.226562 201.285156 188.484375 201.285156 C 182.734375 201.285156 177.542969 201.1875 177.542969 201.1875 C 173.617188 201.1875 169.832031 200.621094 166.214844 199.640625 L 163.886719 207.9375 C 162.007812 208.746094 160.382812 209.023438 159.042969 209.023438 C 156.128906 209.023438 154.542969 207.714844 154.542969 207.714844 L 153.746094 194.050781 C 145.277344 188.472656 138.902344 180.011719 136 170.054688 L 127.316406 167.375 C 127.316406 167.375 125.070312 160.625 125.730469 152.726562 L 135.550781 147.570312 C 138.152344 137.0625 144.554688 128.054688 153.273438 122.144531 L 148.851562 106.421875 C 148.851562 106.421875 150.890625 105.628906 153.730469 105.628906 C 157.921875 105.628906 163.863281 107.355469 167.574219 115.910156 C 169.484375 115.460938 171.445312 115.136719 173.4375 114.9375 C 173.730469 118.390625 175.332031 121.46875 177.742188 123.6875 C 175.5625 123.824219 174.238281 123.960938 174.070312 123.980469 C 172.75 124.125 171.796875 125.304688 171.9375 126.621094 C 172.078125 127.945312 173.289062 128.882812 174.582031 128.75 C 174.714844 128.734375 187.917969 127.363281 202.871094 129.074219 C 202.964844 129.085938 203.058594 129.089844 203.152344 129.089844 C 204.351562 129.089844 205.394531 128.1875 205.53125 126.964844 C 205.6875 125.648438 204.738281 124.460938 203.421875 124.308594 C 200.871094 124.015625 198.382812 123.808594 196.003906 123.671875 C 198.457031 121.402344 200.058594 118.242188 200.296875 114.710938 C 200.308594 114.710938 200.332031 114.714844 200.332031 114.714844 C 224.238281 114.714844 243.628906 134.078125 243.628906 157.945312 C 243.628906 172.558594 236.351562 185.457031 225.238281 193.28125 Z M 192.292969 107.058594 C 192.78125 107.453125 193.226562 107.898438 193.621094 108.386719 C 193.640625 108.414062 193.660156 108.4375 193.679688 108.464844 C 193.84375 108.671875 194 108.890625 194.144531 109.113281 C 194.1875 109.179688 194.226562 109.246094 194.265625 109.3125 C 194.382812 109.503906 194.492188 109.695312 194.589844 109.894531 C 194.636719 109.980469 194.679688 110.070312 194.71875 110.160156 C 194.808594 110.34375 194.886719 110.53125 194.960938 110.722656 C 195 110.824219 195.039062 110.925781 195.070312 111.027344 C 195.136719 111.21875 195.191406 111.410156 195.242188 111.605469 C 195.269531 111.710938 195.300781 111.816406 195.324219 111.925781 C 195.371094 112.132812 195.40625 112.347656 195.4375 112.558594 C 195.453125 112.65625 195.472656 112.753906 195.480469 112.851562 C 195.515625 113.164062 195.535156 113.480469 195.535156 113.804688 C 195.535156 113.988281 195.519531 114.164062 195.511719 114.347656 C 195.226562 118.871094 191.464844 122.46875 186.863281 122.46875 C 182.363281 122.46875 178.65625 119.03125 178.226562 114.652344 C 178.203125 114.371094 178.1875 114.089844 178.1875 113.804688 C 178.1875 113.488281 178.203125 113.179688 178.238281 112.871094 C 178.246094 112.78125 178.265625 112.691406 178.28125 112.601562 C 178.308594 112.386719 178.34375 112.171875 178.386719 111.964844 C 178.410156 111.867188 178.4375 111.769531 178.460938 111.671875 C 178.515625 111.472656 178.566406 111.277344 178.628906 111.082031 C 178.660156 110.992188 178.695312 110.90625 178.730469 110.8125 C 178.800781 110.617188 178.878906 110.425781 178.964844 110.234375 C 179 110.15625 179.039062 110.082031 179.078125 110.003906 C 179.175781 109.804688 179.28125 109.609375 179.390625 109.421875 C 179.429688 109.359375 179.464844 109.296875 179.503906 109.238281 C 179.628906 109.035156 179.761719 108.839844 179.90625 108.648438 C 179.9375 108.605469 179.96875 108.5625 180.003906 108.519531 C 180.164062 108.3125 180.332031 108.113281 180.511719 107.921875 C 180.53125 107.898438 180.554688 107.875 180.574219 107.851562 C 180.777344 107.640625 180.988281 107.433594 181.214844 107.242188 C 182.734375 105.9375 184.707031 105.144531 186.863281 105.144531 C 188.917969 105.144531 190.804688 105.863281 192.292969 107.058594 Z M 250.441406 132.4375 C 251.972656 132.078125 253.390625 131.246094 254.53125 129.980469 C 256.929688 127.316406 257.300781 123.667969 255.453125 120.894531 C 254.875 120.035156 253.710938 119.8125 252.855469 120.378906 C 251.996094 120.953125 251.761719 122.113281 252.335938 122.972656 C 253.355469 124.5 252.777344 126.335938 251.746094 127.472656 C 251.628906 127.605469 251.4375 127.800781 251.175781 128.003906 C 250.957031 126.375 250.253906 124.636719 249.066406 122.804688 C 247.304688 120.085938 244.863281 118.777344 242.566406 119.289062 C 240.664062 119.714844 239.257812 121.324219 238.984375 123.390625 C 238.882812 124.175781 238.941406 124.960938 239.148438 125.726562 C 229.972656 114.726562 216.210938 107.664062 200.816406 107.519531 C 200.359375 107.464844 199.640625 107.390625 198.667969 107.320312 C 196.371094 103.164062 191.941406 100.34375 186.863281 100.34375 C 181.671875 100.34375 177.160156 103.296875 174.910156 107.605469 C 173.726562 107.671875 172.539062 107.765625 171.34375 107.917969 C 167.085938 101.824219 160.890625 98.433594 153.730469 98.433594 C 149.738281 98.429688 146.785156 99.5 146.234375 99.714844 C 142.78125 101.058594 140.910156 104.800781 141.914062 108.367188 L 145.007812 119.382812 C 137.742188 125.503906 132.355469 133.546875 129.460938 142.636719 L 122.375 146.355469 C 120.195312 147.503906 118.75 149.679688 118.546875 152.132812 C 117.789062 161.234375 120.199219 168.808594 120.480469 169.644531 C 121.214844 171.847656 122.964844 173.5625 125.191406 174.25 L 130.347656 175.84375 C 133.65625 184.550781 139.34375 192.199219 146.75 197.902344 L 147.347656 208.136719 C 147.464844 210.132812 148.410156 211.992188 149.953125 213.265625 C 150.796875 213.957031 153.933594 216.21875 159.042969 216.21875 C 161.570312 216.21875 164.160156 215.65625 166.742188 214.546875 C 168.738281 213.683594 170.238281 211.96875 170.828125 209.878906 L 171.355469 207.988281 C 173.425781 208.253906 175.492188 208.386719 177.539062 208.386719 C 177.496094 208.386719 182.714844 208.484375 188.484375 208.484375 C 194.285156 208.484375 200.449219 208.382812 200.449219 208.382812 C 200.453125 208.382812 200.457031 208.382812 200.457031 208.382812 C 202.683594 208.382812 204.945312 208.222656 207.210938 207.90625 L 207.773438 209.886719 C 208.339844 211.898438 209.753906 213.5625 211.644531 214.449219 C 214.371094 215.730469 217.121094 216.375 219.816406 216.375 C 224.644531 216.375 227.675781 214.308594 228.488281 213.679688 C 230.082031 212.4375 231.078125 210.585938 231.242188 208.578125 L 232.164062 197.0625 C 243.917969 187.515625 250.835938 173.136719 250.835938 157.945312 C 250.835938 150.273438 249.105469 143 246.023438 136.484375 C 247.667969 135.652344 249.4375 134.371094 250.441406 132.4375 " fill-opacity="1" fill-rule="nonzero"/></g><path fill="#ffde59" d="M 150.148438 135.230469 C 147.972656 135.230469 146.269531 137.390625 146.269531 140.148438 C 146.269531 142.90625 147.972656 145.0625 150.148438 145.0625 C 152.320312 145.0625 154.023438 142.90625 154.023438 140.148438 C 154.023438 137.390625 152.320312 135.230469 150.148438 135.230469 " fill-opacity="1" fill-rule="nonzero"/><path fill="#ffde59" d="M 181.320312 160.371094 C 180.65625 159.730469 180.191406 159.046875 179.933594 158.347656 C 179.648438 157.550781 179.46875 156.761719 179.40625 155.996094 C 179.273438 153.585938 180.03125 151.558594 181.726562 149.792969 C 183.113281 148.351562 185.085938 147.441406 187.609375 147.082031 L 187.609375 163.460938 C 186.296875 163.195312 185.203125 162.84375 184.332031 162.410156 C 183.082031 161.773438 182.066406 161.085938 181.320312 160.371094 Z M 198.546875 182.480469 C 198.035156 183.113281 197.277344 183.699219 196.296875 184.226562 C 195.667969 184.5625 194.875 184.824219 193.925781 185 L 193.925781 170.085938 C 195.808594 170.675781 197.230469 171.515625 198.160156 172.582031 C 199.394531 173.996094 199.980469 176.167969 199.917969 179.042969 L 199.917969 179.082031 C 199.917969 179.273438 199.875 179.726562 199.601562 180.597656 C 199.402344 181.234375 199.058594 181.851562 198.546875 182.480469 Z M 203.410156 170.308594 C 202.492188 168.902344 201.144531 167.636719 199.417969 166.546875 C 197.980469 165.617188 196.171875 164.910156 193.925781 164.394531 L 193.925781 147.652344 C 194.355469 147.828125 194.746094 148.039062 195.109375 148.285156 C 196.027344 148.90625 196.808594 149.613281 197.441406 150.390625 C 198.042969 151.128906 198.5 151.953125 198.796875 152.84375 C 199.113281 153.816406 199.308594 154.738281 199.378906 155.644531 C 199.601562 157.550781 200.984375 158.253906 202.320312 158.128906 C 202.960938 158.046875 204.496094 157.625 204.96875 155.082031 C 204.878906 151.246094 203.636719 148.121094 201.285156 145.792969 C 199.308594 143.84375 196.839844 142.5625 193.925781 141.96875 L 193.925781 139.46875 C 193.925781 138.234375 193.34375 137.484375 192.808594 137.035156 C 191.503906 136.011719 189.765625 136.039062 188.558594 137.136719 C 188.125 137.546875 187.609375 138.285156 187.609375 139.46875 L 187.609375 141.617188 C 185.859375 141.796875 184.207031 142.175781 182.671875 142.75 C 180.664062 143.503906 178.9375 144.554688 177.535156 145.886719 C 176.144531 147.207031 175.085938 148.777344 174.375 150.554688 C 173.660156 152.367188 173.390625 154.289062 173.578125 156.300781 C 173.980469 159.976562 175.53125 162.988281 178.179688 165.257812 C 180.53125 167.253906 183.65625 168.523438 187.609375 169.042969 L 187.609375 185.101562 C 184.789062 184.804688 182.558594 184.046875 180.957031 182.847656 C 179.066406 181.410156 177.917969 179.707031 177.472656 177.789062 C 177.316406 176.679688 176.472656 175.476562 174.585938 175.40625 C 173.453125 175.34375 172.742188 175.828125 172.390625 176.242188 C 172.046875 176.652344 171.679688 177.375 171.914062 178.445312 C 172.640625 182.351562 174.660156 185.378906 177.925781 187.449219 C 180.644531 189.164062 183.894531 190.199219 187.609375 190.535156 L 187.609375 192.5 C 187.609375 193.71875 188.140625 194.457031 188.601562 194.875 C 189.207031 195.410156 189.9375 195.6875 190.710938 195.6875 C 191.441406 195.6875 192.140625 195.441406 192.820312 194.925781 C 193.535156 194.351562 193.925781 193.492188 193.925781 192.5 L 193.925781 190.46875 C 197.5 189.972656 200.230469 188.699219 202.078125 186.679688 C 204.125 184.414062 205.261719 181.898438 205.4375 179.257812 C 205.585938 177.882812 205.507812 176.4375 205.214844 174.832031 C 204.914062 173.222656 204.308594 171.703125 203.410156 170.308594 " fill-opacity="1" fill-rule="nonzero"/><path fill="#ffde59" d="M 204.789062 85.792969 C 206.441406 85.792969 207.789062 87.132812 207.789062 88.785156 C 207.789062 90.433594 206.441406 91.777344 204.789062 91.777344 C 203.136719 91.777344 201.789062 90.433594 201.789062 88.785156 C 201.789062 87.132812 203.136719 85.792969 204.789062 85.792969 Z M 204.789062 96.578125 C 209.089844 96.578125 212.59375 93.082031 212.59375 88.785156 C 212.59375 84.488281 209.089844 80.992188 204.789062 80.992188 C 200.488281 80.992188 196.984375 84.488281 196.984375 88.785156 C 196.984375 93.082031 200.488281 96.578125 204.789062 96.578125 " fill-opacity="1" fill-rule="nonzero"/><g clip-path="url(#f90c293832)"><path fill="#ffde59" d="M 180.125 75.089844 C 183.277344 75.089844 185.839844 77.648438 185.839844 80.789062 C 185.839844 83.9375 183.277344 86.496094 180.125 86.496094 C 176.976562 86.496094 174.414062 83.9375 174.414062 80.789062 C 174.414062 77.648438 176.976562 75.089844 180.125 75.089844 Z M 180.125 91.296875 C 185.921875 91.296875 190.644531 86.582031 190.644531 80.789062 C 190.644531 75.003906 185.921875 70.292969 180.125 70.292969 C 174.324219 70.292969 169.609375 75.003906 169.609375 80.789062 C 169.609375 86.582031 174.324219 91.296875 180.125 91.296875 " fill-opacity="1" fill-rule="nonzero"/></g><g fill="#ebe8e8" fill-opacity="1"><g transform="translate(19.937203, 269.080957)"><g><path d="M 15.90625 -36.71875 C 17.863281 -36.71875 19.773438 -36.429688 21.640625 -35.859375 C 23.503906 -35.296875 24.890625 -34.738281 25.796875 -34.1875 L 27.109375 -33.3125 L 23.78125 -26.75 C 23.519531 -26.925781 23.15625 -27.148438 22.6875 -27.421875 C 22.21875 -27.703125 21.34375 -28.078125 20.0625 -28.546875 C 18.78125 -29.015625 17.585938 -29.25 16.484375 -29.25 C 15.109375 -29.25 14.050781 -28.957031 13.3125 -28.375 C 12.570312 -27.789062 12.203125 -27.003906 12.203125 -26.015625 C 12.203125 -25.515625 12.375 -25.050781 12.71875 -24.625 C 13.070312 -24.207031 13.671875 -23.757812 14.515625 -23.28125 C 15.359375 -22.800781 16.097656 -22.414062 16.734375 -22.125 C 17.378906 -21.832031 18.375 -21.394531 19.71875 -20.8125 C 22.050781 -19.820312 24.039062 -18.472656 25.6875 -16.765625 C 27.332031 -15.054688 28.15625 -13.125 28.15625 -10.96875 C 28.15625 -8.90625 27.78125 -7.097656 27.03125 -5.546875 C 26.289062 -4.003906 25.269531 -2.796875 23.96875 -1.921875 C 22.675781 -1.046875 21.242188 -0.398438 19.671875 0.015625 C 18.097656 0.441406 16.394531 0.65625 14.5625 0.65625 C 12.988281 0.65625 11.441406 0.492188 9.921875 0.171875 C 8.410156 -0.148438 7.144531 -0.550781 6.125 -1.03125 C 5.101562 -1.507812 4.179688 -1.976562 3.359375 -2.4375 C 2.546875 -2.90625 1.953125 -3.300781 1.578125 -3.625 L 1 -4.109375 L 5.109375 -11.015625 C 5.460938 -10.722656 5.941406 -10.347656 6.546875 -9.890625 C 7.160156 -9.441406 8.25 -8.835938 9.8125 -8.078125 C 11.375 -7.328125 12.753906 -6.953125 13.953125 -6.953125 C 17.421875 -6.953125 19.15625 -8.132812 19.15625 -10.5 C 19.15625 -10.988281 19.03125 -11.441406 18.78125 -11.859375 C 18.53125 -12.285156 18.09375 -12.707031 17.46875 -13.125 C 16.84375 -13.550781 16.285156 -13.890625 15.796875 -14.140625 C 15.316406 -14.390625 14.53125 -14.769531 13.4375 -15.28125 C 12.34375 -15.789062 11.535156 -16.175781 11.015625 -16.4375 C 8.828125 -17.519531 7.132812 -18.867188 5.9375 -20.484375 C 4.75 -22.097656 4.15625 -23.835938 4.15625 -25.703125 C 4.15625 -28.941406 5.347656 -31.585938 7.734375 -33.640625 C 10.128906 -35.691406 12.851562 -36.71875 15.90625 -36.71875 Z M 15.90625 -36.71875 "/></g></g></g><g fill="#ebe8e8" fill-opacity="1"><g transform="translate(58.066376, 269.080957)"><g><path d="M 20.9375 -36.0625 L 35.5 0 L 26.671875 0 L 24 -7.21875 L 10.28125 -7.21875 L 7.609375 0 L -1.21875 0 L 13.328125 -36.0625 Z M 21.203125 -14.421875 L 17.1875 -24.921875 L 17.09375 -24.921875 L 13.078125 -14.421875 Z M 21.203125 -14.421875 "/></g></g></g><g fill="#ebe8e8" fill-opacity="1"><g transform="translate(101.092886, 269.080957)"><g><path d="M 13.90625 0 L -1.21875 -36.0625 L 8.046875 -36.0625 L 17.140625 -12.375 L 26.234375 -36.0625 L 35.5 -36.0625 L 20.375 0 Z M 13.90625 0 "/></g></g></g><g fill="#ebe8e8" fill-opacity="1"><g transform="translate(144.119394, 269.080957)"><g><path d="M 23.265625 -36.0625 L 23.265625 -28.859375 L 10.84375 -28.859375 L 10.84375 -21.6875 L 22.734375 -21.6875 L 22.734375 -14.46875 L 10.84375 -14.46875 L 10.84375 -7.21875 L 23.265625 -7.21875 L 23.265625 0 L 2.625 0 L 2.625 -36.0625 Z M 23.265625 -36.0625 "/></g></g></g><g fill="#ebe8e8" fill-opacity="1"><g transform="translate(178.225773, 269.080957)"><g/></g></g><g fill="#ebe8e8" fill-opacity="1"><g transform="translate(198.908227, 269.080957)"><g><path d="M 21.8125 -7.4375 C 23.070312 -7.4375 24.289062 -7.625 25.46875 -8 C 26.644531 -8.375 27.507812 -8.738281 28.0625 -9.09375 L 28.890625 -9.65625 L 32.390625 -2.671875 C 32.273438 -2.578125 32.113281 -2.457031 31.90625 -2.3125 C 31.707031 -2.164062 31.234375 -1.894531 30.484375 -1.5 C 29.742188 -1.113281 28.953125 -0.773438 28.109375 -0.484375 C 27.265625 -0.191406 26.15625 0.0664062 24.78125 0.296875 C 23.414062 0.535156 22.003906 0.65625 20.546875 0.65625 C 17.191406 0.65625 14.015625 -0.164062 11.015625 -1.8125 C 8.015625 -3.457031 5.59375 -5.722656 3.75 -8.609375 C 1.914062 -11.492188 1 -14.613281 1 -17.96875 C 1 -20.5 1.535156 -22.929688 2.609375 -25.265625 C 3.691406 -27.597656 5.128906 -29.59375 6.921875 -31.25 C 8.722656 -32.914062 10.816406 -34.242188 13.203125 -35.234375 C 15.585938 -36.222656 18.035156 -36.71875 20.546875 -36.71875 C 22.878906 -36.71875 25.03125 -36.441406 27 -35.890625 C 28.96875 -35.335938 30.359375 -34.785156 31.171875 -34.234375 L 32.390625 -33.40625 L 28.890625 -26.40625 C 28.691406 -26.582031 28.390625 -26.789062 27.984375 -27.03125 C 27.578125 -27.28125 26.757812 -27.609375 25.53125 -28.015625 C 24.3125 -28.429688 23.070312 -28.640625 21.8125 -28.640625 C 19.832031 -28.640625 18.054688 -28.316406 16.484375 -27.671875 C 14.910156 -27.035156 13.660156 -26.191406 12.734375 -25.140625 C 11.816406 -24.085938 11.117188 -22.957031 10.640625 -21.75 C 10.160156 -20.539062 9.921875 -19.3125 9.921875 -18.0625 C 9.921875 -15.320312 10.945312 -12.863281 13 -10.6875 C 15.0625 -8.519531 18 -7.4375 21.8125 -7.4375 Z M 21.8125 -7.4375 "/></g></g></g><g fill="#ebe8e8" fill-opacity="1"><g transform="translate(240.579216, 269.080957)"><g><path d="M 20.9375 -36.0625 L 35.5 0 L 26.671875 0 L 24 -7.21875 L 10.28125 -7.21875 L 7.609375 0 L -1.21875 0 L 13.328125 -36.0625 Z M 21.203125 -14.421875 L 17.1875 -24.921875 L 17.09375 -24.921875 L 13.078125 -14.421875 Z M 21.203125 -14.421875 "/></g></g></g><g fill="#ebe8e8" fill-opacity="1"><g transform="translate(283.605719, 269.080957)"><g><path d="M 15.90625 -36.71875 C 17.863281 -36.71875 19.773438 -36.429688 21.640625 -35.859375 C 23.503906 -35.296875 24.890625 -34.738281 25.796875 -34.1875 L 27.109375 -33.3125 L 23.78125 -26.75 C 23.519531 -26.925781 23.15625 -27.148438 22.6875 -27.421875 C 22.21875 -27.703125 21.34375 -28.078125 20.0625 -28.546875 C 18.78125 -29.015625 17.585938 -29.25 16.484375 -29.25 C 15.109375 -29.25 14.050781 -28.957031 13.3125 -28.375 C 12.570312 -27.789062 12.203125 -27.003906 12.203125 -26.015625 C 12.203125 -25.515625 12.375 -25.050781 12.71875 -24.625 C 13.070312 -24.207031 13.671875 -23.757812 14.515625 -23.28125 C 15.359375 -22.800781 16.097656 -22.414062 16.734375 -22.125 C 17.378906 -21.832031 18.375 -21.394531 19.71875 -20.8125 C 22.050781 -19.820312 24.039062 -18.472656 25.6875 -16.765625 C 27.332031 -15.054688 28.15625 -13.125 28.15625 -10.96875 C 28.15625 -8.90625 27.78125 -7.097656 27.03125 -5.546875 C 26.289062 -4.003906 25.269531 -2.796875 23.96875 -1.921875 C 22.675781 -1.046875 21.242188 -0.398438 19.671875 0.015625 C 18.097656 0.441406 16.394531 0.65625 14.5625 0.65625 C 12.988281 0.65625 11.441406 0.492188 9.921875 0.171875 C 8.410156 -0.148438 7.144531 -0.550781 6.125 -1.03125 C 5.101562 -1.507812 4.179688 -1.976562 3.359375 -2.4375 C 2.546875 -2.90625 1.953125 -3.300781 1.578125 -3.625 L 1 -4.109375 L 5.109375 -11.015625 C 5.460938 -10.722656 5.941406 -10.347656 6.546875 -9.890625 C 7.160156 -9.441406 8.25 -8.835938 9.8125 -8.078125 C 11.375 -7.328125 12.753906 -6.953125 13.953125 -6.953125 C 17.421875 -6.953125 19.15625 -8.132812 19.15625 -10.5 C 19.15625 -10.988281 19.03125 -11.441406 18.78125 -11.859375 C 18.53125 -12.285156 18.09375 -12.707031 17.46875 -13.125 C 16.84375 -13.550781 16.285156 -13.890625 15.796875 -14.140625 C 15.316406 -14.390625 14.53125 -14.769531 13.4375 -15.28125 C 12.34375 -15.789062 11.535156 -16.175781 11.015625 -16.4375 C 8.828125 -17.519531 7.132812 -18.867188 5.9375 -20.484375 C 4.75 -22.097656 4.15625 -23.835938 4.15625 -25.703125 C 4.15625 -28.941406 5.347656 -31.585938 7.734375 -33.640625 C 10.128906 -35.691406 12.851562 -36.71875 15.90625 -36.71875 Z M 15.90625 -36.71875 "/></g></g></g><g fill="#ebe8e8" fill-opacity="1"><g transform="translate(321.734883, 269.080957)"><g><path d="M 10.84375 -14.46875 L 10.84375 0 L 2.625 0 L 2.625 -36.0625 L 10.84375 -36.0625 L 10.84375 -21.6875 L 22.46875 -21.6875 L 22.46875 -36.0625 L 30.6875 -36.0625 L 30.6875 0 L 22.46875 0 L 22.46875 -14.46875 Z M 10.84375 -14.46875 "/></g></g></g><g fill="#ffde59" fill-opacity="1"><g transform="translate(88.847252, 298.413831)"><g><path d="M 2.058594 0 L 3.167969 0 L 3.167969 -5.683594 L 8.617188 -5.683594 L 8.617188 -6.703125 L 3.167969 -6.703125 L 3.167969 -11.710938 L 9.089844 -11.710938 L 9.089844 -12.75 L 2.058594 -12.75 Z M 2.058594 0 "/></g></g></g><g fill="#ffde59" fill-opacity="1"><g transform="translate(113.621405, 298.413831)"><g><path d="M 2.058594 0 L 3.167969 0 L 3.167969 -12.75 L 2.058594 -12.75 Z M 2.058594 0 "/></g></g></g><g fill="#ffde59" fill-opacity="1"><g transform="translate(133.42368, 298.413831)"><g><path d="M 2.058594 0 L 3.152344 0 L 3.152344 -10.855469 L 10.910156 0 L 11.949219 0 L 11.949219 -12.75 L 10.855469 -12.75 L 10.855469 -1.914062 L 3.097656 -12.75 L 2.058594 -12.75 Z M 2.058594 0 "/></g></g></g><g fill="#ffde59" fill-opacity="1"><g transform="translate(162.004124, 298.413831)"><g><path d="M 0.402344 0 L 1.585938 0 L 2.894531 -3.207031 L 9.527344 -3.207031 L 10.855469 0 L 12.023438 0 L 6.738281 -12.75 L 5.683594 -12.75 Z M 3.332031 -4.226562 L 6.210938 -11.238281 L 9.105469 -4.226562 Z M 3.332031 -4.226562 "/></g></g></g><g fill="#ffde59" fill-opacity="1"><g transform="translate(189.018337, 298.413831)"><g><path d="M 2.058594 0 L 3.152344 0 L 3.152344 -10.855469 L 10.910156 0 L 11.949219 0 L 11.949219 -12.75 L 10.855469 -12.75 L 10.855469 -1.914062 L 3.097656 -12.75 L 2.058594 -12.75 Z M 2.058594 0 "/></g></g></g><g fill="#ffde59" fill-opacity="1"><g transform="translate(217.598775, 298.413831)"><g><path d="M 6.339844 4.535156 L 7.394531 4.535156 C 8.617188 4.535156 9.363281 3.898438 9.363281 2.859375 C 9.363281 1.875 8.6875 1.257812 7.59375 1.183594 L 7.941406 0.238281 C 10.800781 0.109375 13.132812 -1.621094 13.878906 -4.28125 L 12.714844 -4.28125 C 12.003906 -2.167969 10.035156 -0.875 7.648438 -0.875 C 4.535156 -0.875 2.296875 -3.113281 2.296875 -6.375 C 2.296875 -9.636719 4.535156 -11.875 7.648438 -11.875 C 9.980469 -11.875 11.875 -10.636719 12.605469 -8.617188 L 13.769531 -8.617188 C 12.933594 -11.292969 10.546875 -12.988281 7.632812 -12.988281 C 3.878906 -12.988281 1.164062 -10.253906 1.164062 -6.375 C 1.164062 -2.660156 3.644531 0 7.140625 0.21875 L 6.613281 1.730469 L 6.757812 1.929688 L 7.324219 1.929688 C 8.03125 1.929688 8.414062 2.242188 8.414062 2.804688 C 8.414062 3.371094 8.03125 3.679688 7.324219 3.679688 L 6.339844 3.679688 Z M 6.339844 4.535156 "/></g></g></g><g fill="#ffde59" fill-opacity="1"><g transform="translate(247.144454, 298.413831)"><g><path d="M 0.402344 0 L 1.585938 0 L 2.894531 -3.207031 L 9.527344 -3.207031 L 10.855469 0 L 12.023438 0 L 6.738281 -12.75 L 5.683594 -12.75 Z M 3.332031 -4.226562 L 6.210938 -11.238281 L 9.105469 -4.226562 Z M 3.332031 -4.226562 "/></g></g></g><g fill="#ffde59" fill-opacity="1"><g transform="translate(274.158677, 298.413831)"><g><path d="M 6.15625 0.238281 C 8.925781 0.238281 10.671875 -1.109375 10.671875 -3.242188 C 10.671875 -5.0625 9.433594 -6.191406 6.210938 -6.941406 C 3.535156 -7.539062 2.585938 -8.324219 2.585938 -9.597656 C 2.585938 -11 3.789062 -11.929688 5.847656 -11.929688 C 7.976562 -11.929688 9.269531 -10.910156 9.363281 -9.105469 L 10.457031 -9.105469 C 10.363281 -11.566406 8.652344 -12.988281 5.847656 -12.988281 C 3.132812 -12.988281 1.476562 -11.640625 1.476562 -9.597656 C 1.476562 -7.6875 2.804688 -6.628906 5.9375 -5.902344 C 8.507812 -5.335938 9.542969 -4.554688 9.542969 -3.222656 C 9.542969 -1.75 8.25 -0.820312 6.15625 -0.820312 C 3.953125 -0.820312 2.476562 -1.914062 2.367188 -3.789062 L 1.273438 -3.789062 C 1.367188 -1.328125 3.242188 0.238281 6.15625 0.238281 Z M 6.15625 0.238281 "/></g></g></g></svg>